<mxfile host="app.diagrams.net" modified="2021-04-25T12:06:16.607Z" agent="5.0 (Windows NT 10.0; Win64; x64) AppleWebKit/537.36 (KHTML, like Gecko) Chrome/90.0.4430.85 Safari/537.36" etag="VOSG9kiTbW-HEGDWkBv0" version="14.6.6" type="github">
  <diagram id="vTQDnTjOUbNNPBtG5jPd" name="Page-1">
    <mxGraphModel dx="1038" dy="580" grid="1" gridSize="10" guides="1" tooltips="1" connect="1" arrows="1" fold="1" page="1" pageScale="1" pageWidth="827" pageHeight="1169" math="0" shadow="0">
      <root>
        <mxCell id="0" />
        <mxCell id="1" parent="0" />
        <mxCell id="a4lqbwcueoynCkhQMIS2-1" value="Outlook" style="rounded=0;whiteSpace=wrap;html=1;" vertex="1" parent="1">
          <mxGeometry x="320" y="100" width="120" height="60" as="geometry" />
        </mxCell>
        <mxCell id="a4lqbwcueoynCkhQMIS2-2" value="" style="endArrow=classic;html=1;exitX=0.923;exitY=1.023;exitDx=0;exitDy=0;exitPerimeter=0;" edge="1" parent="1" source="a4lqbwcueoynCkhQMIS2-1">
          <mxGeometry width="50" height="50" relative="1" as="geometry">
            <mxPoint x="390" y="320" as="sourcePoint" />
            <mxPoint x="500" y="260" as="targetPoint" />
          </mxGeometry>
        </mxCell>
        <mxCell id="a4lqbwcueoynCkhQMIS2-3" value="" style="endArrow=classic;html=1;" edge="1" parent="1">
          <mxGeometry width="50" height="50" relative="1" as="geometry">
            <mxPoint x="388" y="160" as="sourcePoint" />
            <mxPoint x="388" y="270" as="targetPoint" />
          </mxGeometry>
        </mxCell>
        <mxCell id="a4lqbwcueoynCkhQMIS2-4" value="" style="endArrow=classic;html=1;exitX=0.197;exitY=1.01;exitDx=0;exitDy=0;exitPerimeter=0;" edge="1" parent="1" source="a4lqbwcueoynCkhQMIS2-1">
          <mxGeometry width="50" height="50" relative="1" as="geometry">
            <mxPoint x="390" y="320" as="sourcePoint" />
            <mxPoint x="300" y="250" as="targetPoint" />
          </mxGeometry>
        </mxCell>
        <mxCell id="a4lqbwcueoynCkhQMIS2-7" value="Temp" style="rounded=0;whiteSpace=wrap;html=1;" vertex="1" parent="1">
          <mxGeometry x="180" y="250" width="120" height="60" as="geometry" />
        </mxCell>
        <mxCell id="a4lqbwcueoynCkhQMIS2-8" value="Rainy" style="text;html=1;strokeColor=none;fillColor=none;align=center;verticalAlign=middle;whiteSpace=wrap;rounded=0;" vertex="1" parent="1">
          <mxGeometry x="260" y="190" width="40" height="20" as="geometry" />
        </mxCell>
        <mxCell id="a4lqbwcueoynCkhQMIS2-11" value="Sunny" style="text;html=1;strokeColor=none;fillColor=none;align=center;verticalAlign=middle;whiteSpace=wrap;rounded=0;" vertex="1" parent="1">
          <mxGeometry x="490" y="190" width="40" height="20" as="geometry" />
        </mxCell>
        <mxCell id="a4lqbwcueoynCkhQMIS2-12" value="Overcast" style="text;html=1;strokeColor=none;fillColor=none;align=center;verticalAlign=middle;whiteSpace=wrap;rounded=0;" vertex="1" parent="1">
          <mxGeometry x="394" y="210" width="40" height="20" as="geometry" />
        </mxCell>
        <mxCell id="a4lqbwcueoynCkhQMIS2-13" style="edgeStyle=orthogonalEdgeStyle;rounded=0;orthogonalLoop=1;jettySize=auto;html=1;exitX=0.75;exitY=1;exitDx=0;exitDy=0;entryX=1;entryY=0.75;entryDx=0;entryDy=0;" edge="1" parent="1" source="a4lqbwcueoynCkhQMIS2-12" target="a4lqbwcueoynCkhQMIS2-12">
          <mxGeometry relative="1" as="geometry" />
        </mxCell>
        <mxCell id="a4lqbwcueoynCkhQMIS2-14" value="" style="endArrow=classic;html=1;exitX=0.57;exitY=1.07;exitDx=0;exitDy=0;exitPerimeter=0;" edge="1" parent="1" source="a4lqbwcueoynCkhQMIS2-7">
          <mxGeometry width="50" height="50" relative="1" as="geometry">
            <mxPoint x="390" y="320" as="sourcePoint" />
            <mxPoint x="320" y="390" as="targetPoint" />
          </mxGeometry>
        </mxCell>
        <mxCell id="a4lqbwcueoynCkhQMIS2-15" value="" style="endArrow=classic;html=1;exitX=0.57;exitY=1.07;exitDx=0;exitDy=0;exitPerimeter=0;" edge="1" parent="1" source="a4lqbwcueoynCkhQMIS2-7">
          <mxGeometry width="50" height="50" relative="1" as="geometry">
            <mxPoint x="390" y="320" as="sourcePoint" />
            <mxPoint x="230" y="390" as="targetPoint" />
          </mxGeometry>
        </mxCell>
        <mxCell id="a4lqbwcueoynCkhQMIS2-16" value="" style="endArrow=classic;html=1;exitX=0.5;exitY=1;exitDx=0;exitDy=0;" edge="1" parent="1" source="a4lqbwcueoynCkhQMIS2-7">
          <mxGeometry width="50" height="50" relative="1" as="geometry">
            <mxPoint x="390" y="320" as="sourcePoint" />
            <mxPoint x="160" y="370" as="targetPoint" />
          </mxGeometry>
        </mxCell>
        <mxCell id="a4lqbwcueoynCkhQMIS2-17" value="Hot" style="text;html=1;strokeColor=none;fillColor=none;align=center;verticalAlign=middle;whiteSpace=wrap;rounded=0;" vertex="1" parent="1">
          <mxGeometry x="140" y="320" width="40" height="20" as="geometry" />
        </mxCell>
        <mxCell id="a4lqbwcueoynCkhQMIS2-18" value="Cool" style="text;html=1;strokeColor=none;fillColor=none;align=center;verticalAlign=middle;whiteSpace=wrap;rounded=0;" vertex="1" parent="1">
          <mxGeometry x="250" y="370" width="40" height="20" as="geometry" />
        </mxCell>
        <mxCell id="a4lqbwcueoynCkhQMIS2-19" value="Mild" style="text;html=1;strokeColor=none;fillColor=none;align=center;verticalAlign=middle;whiteSpace=wrap;rounded=0;" vertex="1" parent="1">
          <mxGeometry x="310" y="340" width="40" height="20" as="geometry" />
        </mxCell>
        <mxCell id="a4lqbwcueoynCkhQMIS2-22" value="NO PLAY" style="rounded=1;whiteSpace=wrap;html=1;" vertex="1" parent="1">
          <mxGeometry x="70" y="380" width="90" height="40" as="geometry" />
        </mxCell>
        <mxCell id="a4lqbwcueoynCkhQMIS2-23" value="PLAY" style="rounded=1;whiteSpace=wrap;html=1;" vertex="1" parent="1">
          <mxGeometry x="190" y="400" width="90" height="40" as="geometry" />
        </mxCell>
        <mxCell id="a4lqbwcueoynCkhQMIS2-24" value="Humidity" style="rounded=0;whiteSpace=wrap;html=1;" vertex="1" parent="1">
          <mxGeometry x="300" y="410" width="110" height="40" as="geometry" />
        </mxCell>
        <mxCell id="a4lqbwcueoynCkhQMIS2-25" value="" style="endArrow=classic;html=1;exitX=0.687;exitY=1.105;exitDx=0;exitDy=0;exitPerimeter=0;" edge="1" parent="1" source="a4lqbwcueoynCkhQMIS2-24">
          <mxGeometry width="50" height="50" relative="1" as="geometry">
            <mxPoint x="390" y="320" as="sourcePoint" />
            <mxPoint x="420" y="510" as="targetPoint" />
          </mxGeometry>
        </mxCell>
        <mxCell id="a4lqbwcueoynCkhQMIS2-26" value="" style="endArrow=classic;html=1;exitX=0.5;exitY=1;exitDx=0;exitDy=0;" edge="1" parent="1" source="a4lqbwcueoynCkhQMIS2-24">
          <mxGeometry width="50" height="50" relative="1" as="geometry">
            <mxPoint x="390" y="320" as="sourcePoint" />
            <mxPoint x="270.55555555555566" y="530" as="targetPoint" />
          </mxGeometry>
        </mxCell>
        <mxCell id="a4lqbwcueoynCkhQMIS2-30" value="High" style="text;html=1;strokeColor=none;fillColor=none;align=center;verticalAlign=middle;whiteSpace=wrap;rounded=0;" vertex="1" parent="1">
          <mxGeometry x="260" y="480" width="40" height="20" as="geometry" />
        </mxCell>
        <mxCell id="a4lqbwcueoynCkhQMIS2-31" value="Normal" style="text;html=1;strokeColor=none;fillColor=none;align=center;verticalAlign=middle;whiteSpace=wrap;rounded=0;" vertex="1" parent="1">
          <mxGeometry x="414" y="470" width="40" height="20" as="geometry" />
        </mxCell>
        <mxCell id="a4lqbwcueoynCkhQMIS2-32" value="NO PLAY" style="rounded=1;whiteSpace=wrap;html=1;" vertex="1" parent="1">
          <mxGeometry x="220" y="540" width="90" height="40" as="geometry" />
        </mxCell>
        <mxCell id="a4lqbwcueoynCkhQMIS2-33" value="PLAY" style="rounded=1;whiteSpace=wrap;html=1;" vertex="1" parent="1">
          <mxGeometry x="380" y="510" width="90" height="40" as="geometry" />
        </mxCell>
      </root>
    </mxGraphModel>
  </diagram>
</mxfile>
